<svg xmlns="http://www.w3.org/2000/svg" width="19.656" height="16.36" viewBox="0 0 19.656 16.36"><defs><style>.a{fill:#fff;}</style></defs><g transform="translate(0 -5.697)"><path class="a" d="M18.077,7.3a5.489,5.489,0,0,0-7.753,0l-.5.5-.5-.5a5.488,5.488,0,0,0-7.752,0,5.545,5.545,0,0,0-.032,7.72c1.893,2.1,7.477,6.649,7.714,6.842a.864.864,0,0,0,.547.194h.019a.837.837,0,0,0,.566-.194c.237-.192,5.821-4.738,7.715-6.842A5.545,5.545,0,0,0,18.077,7.3Zm-1.259,6.559a92.526,92.526,0,0,1-6.991,6.222,92.327,92.327,0,0,1-6.99-6.222,3.831,3.831,0,0,1-.032-5.332,3.75,3.75,0,0,1,5.3,0L9.2,9.619a.84.84,0,0,0,.465.235.87.87,0,0,0,.8-.234l1.092-1.091a3.751,3.751,0,0,1,5.3,0A3.832,3.832,0,0,1,16.818,13.859Z" transform="translate(0)"/></g></svg>