<svg xmlns="http://www.w3.org/2000/svg" width="19.46" height="19.464" viewBox="0 0 19.46 19.464"><defs><style>.a{opacity:0.5;}.b{fill:#fff;}</style></defs><g class="a" transform="translate(-11.86 -13.687)"><path class="b" d="M19.859,5.722a7.112,7.112,0,0,0-.452-2.361A4.986,4.986,0,0,0,16.559.513,7.13,7.13,0,0,0,14.2.061C13.156.011,12.825,0,10.182,0S7.209.011,6.171.057A7.114,7.114,0,0,0,3.81.509,4.749,4.749,0,0,0,2.084,1.635,4.792,4.792,0,0,0,.962,3.357,7.131,7.131,0,0,0,.509,5.719C.46,6.76.449,7.091.449,9.734s.011,2.973.057,4.011a7.112,7.112,0,0,0,.453,2.361,4.985,4.985,0,0,0,2.848,2.848,7.131,7.131,0,0,0,2.361.452c1.038.046,1.369.057,4.011.057s2.973-.011,4.011-.057a7.11,7.11,0,0,0,2.361-.452A4.978,4.978,0,0,0,19.4,16.106a7.136,7.136,0,0,0,.452-2.361c.046-1.038.057-1.369.057-4.011s0-2.973-.049-4.011Zm-1.753,7.947a5.335,5.335,0,0,1-.335,1.806,3.229,3.229,0,0,1-1.848,1.848,5.354,5.354,0,0,1-1.806.334c-1.027.046-1.335.057-3.931.057s-2.909-.011-3.932-.057a5.332,5.332,0,0,1-1.806-.334A3,3,0,0,1,3.331,16.6,3.026,3.026,0,0,1,2.6,15.479a5.355,5.355,0,0,1-.334-1.806c-.046-1.027-.057-1.335-.057-3.932s.011-2.909.057-3.931A5.332,5.332,0,0,1,2.6,4a2.958,2.958,0,0,1,.73-1.118A3.021,3.021,0,0,1,4.452,2.16a5.357,5.357,0,0,1,1.806-.335c1.027-.046,1.335-.057,3.931-.057s2.909.011,3.932.057a5.335,5.335,0,0,1,1.806.335,2.993,2.993,0,0,1,1.118.726A3.025,3.025,0,0,1,17.772,4a5.357,5.357,0,0,1,.335,1.806c.046,1.027.057,1.335.057,3.931s-.011,2.9-.057,3.928Zm0,0" transform="translate(11.411 13.687)"/><path class="b" d="M129.949,124.5a5,5,0,1,0,5,5A5,5,0,0,0,129.949,124.5Zm0,8.243a3.243,3.243,0,1,1,3.243-3.243A3.244,3.244,0,0,1,129.949,132.743Zm0,0" transform="translate(-108.355 -106.08)"/><path class="b" d="M364.784,89.769a1.167,1.167,0,1,1-1.167-1.167A1.167,1.167,0,0,1,364.784,89.769Zm0,0" transform="translate(-336.826 -71.546)"/></g></svg>