<svg xmlns="http://www.w3.org/2000/svg" width="20.193" height="16.41" viewBox="0 0 20.193 16.41"><defs><style>.a{fill:#fff;opacity:0.5;}</style></defs><path class="a" d="M33.2,21.054c.008.178.012.358.012.538a11.783,11.783,0,0,1-18.139,9.926A8.366,8.366,0,0,0,21.211,29.8a4.147,4.147,0,0,1-3.87-2.878,4.057,4.057,0,0,0,.779.075,4.168,4.168,0,0,0,1.092-.145,4.145,4.145,0,0,1-3.323-4.062c0-.017,0-.036,0-.052a4.126,4.126,0,0,0,1.876.518,4.149,4.149,0,0,1-1.282-5.531,11.764,11.764,0,0,0,8.539,4.33,4.146,4.146,0,0,1,7.06-3.78,8.256,8.256,0,0,0,2.632-1.006,4.159,4.159,0,0,1-1.823,2.293,8.249,8.249,0,0,0,2.38-.652A8.375,8.375,0,0,1,33.2,21.054Z" transform="translate(-15.077 -16.969)"/></svg>