<svg xmlns="http://www.w3.org/2000/svg" width="22.5" height="15.75" viewBox="0 0 22.5 15.75"><defs><style>.a{fill:#fff;fill-rule:evenodd;opacity:0.5;}</style></defs><path class="a" d="M28.78,12.584A2.818,2.818,0,0,0,26.791,10.6c-1.755-.47-8.791-.47-8.791-.47s-7.036,0-8.791.47A2.818,2.818,0,0,0,7.22,12.584,29.289,29.289,0,0,0,6.75,18a29.286,29.286,0,0,0,.47,5.415A2.818,2.818,0,0,0,9.209,25.4c1.755.47,8.791.47,8.791.47s7.036,0,8.791-.47a2.818,2.818,0,0,0,1.989-1.989A29.286,29.286,0,0,0,29.25,18a29.289,29.289,0,0,0-.47-5.416ZM15.75,21.375v-6.75L21.6,18,15.75,21.375Z" transform="translate(-6.75 -10.125)"/></svg>