<svg xmlns="http://www.w3.org/2000/svg" width="21.204" height="21.15" viewBox="0 0 21.204 21.15"><defs><style>.a{opacity:0.5;}.b{fill:#fff;fill-rule:evenodd;}</style></defs><g class="a" transform="translate(-7.414 -7.425)"><path class="b" d="M-1696.388-7010.146a10.563,10.563,0,0,1,9.4-5.429,10.775,10.775,0,0,1,6.924,2.708,2.468,2.468,0,0,0-1.694.345,2.367,2.367,0,0,0-.042,4.1,4.165,4.165,0,0,1,1.463,3.463c-.037,1.054-2.572,5.9-2.572,5.9l-2.469-8.437s-.085-.592-.085-.763a1.023,1.023,0,0,1,.2-.629c.092-.1.232-.31.4-.31h1.17v-.938h-6.361v.938h.2c.208,0,.412.279.608.479a10.072,10.072,0,0,1,.879,2.068l.925,3.033-1.993,4.584-2.187-9.163s.065-.628.2-.734c.086-.073.219-.267.372-.267h.06v-.938h-5.4Zm1.247,1.592s-.515-.654-1.061-.654h-.554a10.637,10.637,0,0,0-.83,4.19,10.472,10.472,0,0,0,6.486,9.652l-4.041-13.187Zm17.281-1.676a6.746,6.746,0,0,1-.233,3.375c-1.025,3.3-3.563,9.246-4.545,11.509a10.464,10.464,0,0,0,6.257-9.55,10.328,10.328,0,0,0-1.479-5.333Zm-8.909,8.919-2.711,6.59a10.748,10.748,0,0,0,2.5.295,10.753,10.753,0,0,0,2.581-.314l-2.367-6.571Z" transform="translate(1705 7023)"/></g></svg>