<svg xmlns="http://www.w3.org/2000/svg" width="36" height="36.002" viewBox="0 0 36 36.002"><defs><style>.a{fill:#fff;}</style></defs><g transform="translate(-0.014 0)"><g transform="translate(0.014 0)"><g transform="translate(0 0)"><path class="a" d="M35.655,14.448A18,18,0,0,0,15.024.251l-.09.014A18,18,0,0,0,.844,23.391a13.47,13.47,0,0,1-.687,9.718,1.5,1.5,0,0,0,1.752,2.085l6.722-1.836A17.838,17.838,0,0,0,17.973,36a18.143,18.143,0,0,0,3.59-.36A18,18,0,0,0,35.655,14.448ZM30.5,26.3A14.993,14.993,0,0,1,9.708,30.487a1.5,1.5,0,0,0-.831-.25,1.531,1.531,0,0,0-.394.053L3.9,31.539A16.5,16.5,0,0,0,3.709,22.5a14.813,14.813,0,0,1-.471-1.933A15.014,15.014,0,0,1,15.378,3.233l.081-.012A15,15,0,0,1,30.5,26.3Z" transform="translate(-0.014 0)"/></g></g><g transform="translate(10.345 13.473)"><path class="a" d="M163.107,191.991H150.842a1.533,1.533,0,0,0,0,3.066h12.265a1.533,1.533,0,1,0,0-3.066Z" transform="translate(-149.309 -191.991)"/></g><g transform="translate(10.345 19.459)"><path class="a" d="M163.107,277.306H150.842a1.533,1.533,0,0,0,0,3.066h12.265a1.533,1.533,0,1,0,0-3.066Z" transform="translate(-149.309 -277.306)"/></g></g></svg>