<svg xmlns="http://www.w3.org/2000/svg" width="26" height="26" viewBox="0 0 26 26"><defs><style>.a{fill:#800112;}</style></defs><g transform="translate(-0.001)"><g transform="translate(0.001)"><path class="a" d="M13,0A13,13,0,1,0,26,13,13,13,0,0,0,13,0Zm0,4.566,7.693,4.8H5.308ZM20.79,17.023h0A1.393,1.393,0,0,1,19.4,18.416H6.606a1.393,1.393,0,0,1-1.393-1.393V9.668a1.385,1.385,0,0,1,.022-.238l7.35,4.583.028.015.029.016a.772.772,0,0,0,.16.062l.017,0a.793.793,0,0,0,.181.023h0a.779.779,0,0,0,.181-.023l.017,0a.779.779,0,0,0,.16-.062l.029-.016.028-.015,7.35-4.583a1.384,1.384,0,0,1,.022.238v7.355Z" transform="translate(-0.001)"/></g></g></svg>