<svg xmlns="http://www.w3.org/2000/svg" width="17.129" height="16.373" viewBox="0 0 17.129 16.373"><defs><style>.a{opacity:0.5;}.b{fill:#fff;}</style></defs><g class="a" transform="translate(-9.435 -8.688)"><path class="b" d="M13.325,25.062H9.653V14.014h3.672ZM11.488,12.505h-.024a1.914,1.914,0,1,1,.047-3.817,1.915,1.915,0,1,1-.024,3.817ZM26.565,25.062H22.893V19.151c0-1.485-.531-2.5-1.861-2.5A2.009,2.009,0,0,0,19.149,18a2.52,2.52,0,0,0-.122.9v6.17H15.356s.048-10.01,0-11.048h3.672v1.565a3.644,3.644,0,0,1,3.31-1.825c2.415,0,4.227,1.58,4.227,4.972v6.335Z"/></g></svg>