<svg xmlns="http://www.w3.org/2000/svg" width="33.579" height="22" viewBox="0 0 33.579 22"><defs><style>.a{fill:#f5f5f5;}.b{fill:#d80027;}.c{fill:#0052b4;}</style></defs><g transform="translate(0 -88.276)"><path class="a" d="M33,110.276H.579A.579.579,0,0,1,0,109.7V88.855a.579.579,0,0,1,.579-.579H33a.579.579,0,0,1,.579.579V109.7A.579.579,0,0,1,33,110.276Z" transform="translate(0 0)"/><g transform="translate(0 88.276)"><path class="b" d="M33.579,89.968H0V88.855a.579.579,0,0,1,.579-.579H33a.579.579,0,0,1,.579.579v1.113Z" transform="translate(0 -88.276)"/><rect class="b" width="33.579" height="1.692" transform="translate(0 6.769)"/><rect class="b" width="33.579" height="1.692" transform="translate(0 3.384)"/><path class="b" d="M33.579,244.79h-33A.579.579,0,0,1,0,244.211V243.1H33.579Z" transform="translate(0 -232.944)"/><rect class="b" width="33.579" height="1.692" transform="translate(0 16.924)"/><path class="b" d="M33,399.613H.579A.579.579,0,0,1,0,399.034v-1.113H33.579v1.113A.579.579,0,0,1,33,399.613Z" transform="translate(0 -377.613)"/><rect class="b" width="33.579" height="1.692" transform="translate(0 13.539)"/></g><path class="c" d="M15.053,88.277H.579A.579.579,0,0,0,0,88.856V99.544a.579.579,0,0,0,.579.579H15.053a.579.579,0,0,0,.579-.579V88.856A.579.579,0,0,0,15.053,88.277Z" transform="translate(0 -0.001)"/><g transform="translate(0.935 89.568)"><path class="a" d="M14.944,108.006l.128.384.405,0a.055.055,0,0,1,.032.1l-.326.241.122.386a.055.055,0,0,1-.084.061l-.33-.236-.33.236a.055.055,0,0,1-.084-.061l.122-.386-.326-.241a.055.055,0,0,1,.032-.1l.405,0,.128-.384A.055.055,0,0,1,14.944,108.006Z" transform="translate(-14.253 -107.969)"/><path class="a" d="M14.944,138.661l.128.384.405,0a.055.055,0,0,1,.032.1l-.326.241.122.386a.055.055,0,0,1-.084.061l-.33-.236-.33.236a.055.055,0,0,1-.084-.061l.122-.386-.326-.241a.055.055,0,0,1,.032-.1l.405,0,.128-.384A.055.055,0,0,1,14.944,138.661Z" transform="translate(-14.253 -136.613)"/><path class="a" d="M14.944,169.315l.128.384.405,0a.055.055,0,0,1,.032.1l-.326.241.122.386a.055.055,0,0,1-.084.061l-.33-.236-.33.236a.055.055,0,0,1-.084-.061l.122-.386-.326-.241a.055.055,0,0,1,.032-.1l.405,0,.128-.384A.055.055,0,0,1,14.944,169.315Z" transform="translate(-14.253 -165.257)"/><path class="a" d="M14.944,199.969l.128.384.405,0a.055.055,0,0,1,.032.1l-.326.241.122.386a.055.055,0,0,1-.084.061l-.33-.236-.33.236a.055.055,0,0,1-.084-.061l.122-.386-.326-.241a.055.055,0,0,1,.032-.1l.405,0,.128-.384A.055.055,0,0,1,14.944,199.969Z" transform="translate(-14.253 -193.901)"/><path class="a" d="M14.944,230.623l.128.384.405,0a.055.055,0,0,1,.032.1l-.326.241.122.386a.055.055,0,0,1-.084.061l-.33-.235-.33.236a.055.055,0,0,1-.084-.061l.122-.386-.326-.241a.055.055,0,0,1,.032-.1l.405,0,.128-.384A.054.054,0,0,1,14.944,230.623Z" transform="translate(-14.253 -222.544)"/><path class="a" d="M38.737,123.036l.128.384.405,0a.055.055,0,0,1,.032.1l-.326.241.122.386a.055.055,0,0,1-.084.061l-.33-.236-.33.236a.055.055,0,0,1-.084-.061l.122-.386-.326-.241a.055.055,0,0,1,.032-.1l.405,0,.128-.384A.055.055,0,0,1,38.737,123.036Z" transform="translate(-36.485 -122.013)"/><path class="a" d="M38.737,153.69l.128.384.405,0a.055.055,0,0,1,.032.1l-.326.241.122.386a.055.055,0,0,1-.084.061l-.33-.236-.33.236a.055.055,0,0,1-.084-.061l.122-.386-.326-.241a.055.055,0,0,1,.032-.1l.405,0,.128-.384A.055.055,0,0,1,38.737,153.69Z" transform="translate(-36.485 -150.657)"/><path class="a" d="M38.737,184.344l.128.384.405,0a.055.055,0,0,1,.032.1l-.326.241.122.386a.055.055,0,0,1-.084.061l-.33-.236-.33.236a.055.055,0,0,1-.084-.061l.122-.386-.326-.241a.055.055,0,0,1,.032-.1l.405,0,.128-.384A.055.055,0,0,1,38.737,184.344Z" transform="translate(-36.485 -179.3)"/><path class="a" d="M38.737,215l.128.384.405,0a.055.055,0,0,1,.032.1l-.326.241.122.386a.055.055,0,0,1-.084.061l-.33-.236-.33.236a.055.055,0,0,1-.084-.061l.122-.386-.326-.241a.055.055,0,0,1,.032-.1l.405,0,.128-.384A.055.055,0,0,1,38.737,215Z" transform="translate(-36.485 -207.945)"/><path class="a" d="M62.53,108.006l.128.384.405,0a.055.055,0,0,1,.032.1l-.326.241.122.386a.055.055,0,0,1-.084.061l-.33-.236-.33.236a.055.055,0,0,1-.084-.061l.122-.386-.326-.241a.055.055,0,0,1,.032-.1l.405,0,.128-.384A.055.055,0,0,1,62.53,108.006Z" transform="translate(-58.718 -107.969)"/><path class="a" d="M62.53,138.661l.128.384.405,0a.055.055,0,0,1,.032.1l-.326.241.122.386a.055.055,0,0,1-.084.061l-.33-.236-.33.236a.055.055,0,0,1-.084-.061l.122-.386-.326-.241a.055.055,0,0,1,.032-.1l.405,0,.128-.384A.055.055,0,0,1,62.53,138.661Z" transform="translate(-58.718 -136.613)"/><path class="a" d="M62.53,169.315l.128.384.405,0a.055.055,0,0,1,.032.1l-.326.241.122.386a.055.055,0,0,1-.084.061l-.33-.236-.33.236a.055.055,0,0,1-.084-.061l.122-.386-.326-.241a.055.055,0,0,1,.032-.1l.405,0,.128-.384A.055.055,0,0,1,62.53,169.315Z" transform="translate(-58.718 -165.257)"/><path class="a" d="M62.53,199.969l.128.384.405,0a.055.055,0,0,1,.032.1l-.326.241.122.386a.055.055,0,0,1-.084.061l-.33-.236-.33.236a.055.055,0,0,1-.084-.061l.122-.386-.326-.241a.055.055,0,0,1,.032-.1l.405,0,.128-.384A.055.055,0,0,1,62.53,199.969Z" transform="translate(-58.718 -193.9)"/><path class="a" d="M62.53,230.622l.128.384.405,0a.055.055,0,0,1,.032.1l-.326.241.122.386a.055.055,0,0,1-.084.061l-.33-.236-.33.236a.055.055,0,0,1-.084-.061l.122-.386-.326-.241a.055.055,0,0,1,.032-.1l.405,0,.128-.384A.055.055,0,0,1,62.53,230.622Z" transform="translate(-58.718 -222.543)"/><path class="a" d="M86.324,123.036l.128.384.405,0a.055.055,0,0,1,.032.1l-.326.241.122.386a.055.055,0,0,1-.084.061l-.33-.236-.33.236a.055.055,0,0,1-.084-.061l.122-.386-.326-.241a.055.055,0,0,1,.032-.1l.405,0,.128-.384A.055.055,0,0,1,86.324,123.036Z" transform="translate(-80.951 -122.013)"/><path class="a" d="M86.324,153.69l.128.384.405,0a.055.055,0,0,1,.032.1l-.326.241.122.386a.055.055,0,0,1-.084.061l-.33-.236-.33.236a.055.055,0,0,1-.084-.061l.122-.386-.326-.241a.055.055,0,0,1,.032-.1l.405,0,.128-.384A.055.055,0,0,1,86.324,153.69Z" transform="translate(-80.951 -150.657)"/><path class="a" d="M86.324,184.344l.128.384.405,0a.055.055,0,0,1,.032.1l-.326.241.122.386a.055.055,0,0,1-.084.061l-.33-.236-.33.236a.055.055,0,0,1-.084-.061l.122-.386-.326-.241a.055.055,0,0,1,.032-.1l.405,0,.128-.384A.055.055,0,0,1,86.324,184.344Z" transform="translate(-80.951 -179.3)"/><path class="a" d="M86.324,215l.128.384.405,0a.055.055,0,0,1,.032.1l-.326.241.122.386a.055.055,0,0,1-.084.061l-.33-.236-.33.236a.055.055,0,0,1-.084-.061l.122-.386-.326-.241a.055.055,0,0,1,.032-.1l.405,0L86.22,215A.055.055,0,0,1,86.324,215Z" transform="translate(-80.951 -207.945)"/><path class="a" d="M110.116,108.006l.128.384.405,0a.055.055,0,0,1,.032.1l-.326.241.122.386a.055.055,0,0,1-.084.061l-.33-.236-.33.236a.055.055,0,0,1-.084-.061l.122-.386-.326-.241a.055.055,0,0,1,.032-.1l.405,0,.128-.384A.055.055,0,0,1,110.116,108.006Z" transform="translate(-103.183 -107.969)"/><path class="a" d="M110.116,138.661l.128.384.405,0a.055.055,0,0,1,.032.1l-.326.241.122.386a.055.055,0,0,1-.084.061l-.33-.236-.33.236a.055.055,0,0,1-.084-.061l.122-.386-.326-.241a.055.055,0,0,1,.032-.1l.405,0,.128-.384A.055.055,0,0,1,110.116,138.661Z" transform="translate(-103.183 -136.613)"/><path class="a" d="M110.116,169.315l.128.384.405,0a.055.055,0,0,1,.032.1l-.326.241.122.386a.055.055,0,0,1-.084.061l-.33-.236-.33.236a.055.055,0,0,1-.084-.061l.122-.386-.326-.241a.055.055,0,0,1,.032-.1l.405,0,.128-.384A.055.055,0,0,1,110.116,169.315Z" transform="translate(-103.183 -165.257)"/><path class="a" d="M110.116,199.969l.128.384.405,0a.055.055,0,0,1,.032.1l-.326.241.122.386a.055.055,0,0,1-.084.061l-.33-.236-.33.236a.055.055,0,0,1-.084-.061l.122-.386-.326-.241a.055.055,0,0,1,.032-.1l.405,0,.128-.384A.055.055,0,0,1,110.116,199.969Z" transform="translate(-103.183 -193.9)"/><path class="a" d="M110.116,230.622l.128.384.405,0a.055.055,0,0,1,.032.1l-.326.241.122.386a.055.055,0,0,1-.084.061l-.33-.236-.33.236a.055.055,0,0,1-.084-.061l.122-.386-.326-.241a.055.055,0,0,1,.032-.1l.405,0,.128-.384A.055.055,0,0,1,110.116,230.622Z" transform="translate(-103.183 -222.543)"/><path class="a" d="M133.91,123.036l.128.384.405,0a.055.055,0,0,1,.032.1l-.326.241.122.386a.055.055,0,0,1-.084.061l-.33-.236-.33.236a.055.055,0,0,1-.084-.061l.122-.386-.326-.241a.055.055,0,0,1,.032-.1l.405,0,.128-.384A.055.055,0,0,1,133.91,123.036Z" transform="translate(-125.416 -122.013)"/><path class="a" d="M133.91,153.69l.128.384.405,0a.055.055,0,0,1,.032.1l-.326.241.122.386a.055.055,0,0,1-.084.061l-.33-.236-.33.236a.055.055,0,0,1-.084-.061l.122-.386-.326-.241a.055.055,0,0,1,.032-.1l.405,0,.128-.384A.055.055,0,0,1,133.91,153.69Z" transform="translate(-125.416 -150.657)"/><path class="a" d="M133.91,184.344l.128.384.405,0a.055.055,0,0,1,.032.1l-.326.241.122.386a.055.055,0,0,1-.084.061l-.33-.236-.33.236a.055.055,0,0,1-.084-.061l.122-.386-.326-.241a.055.055,0,0,1,.032-.1l.405,0,.128-.384A.055.055,0,0,1,133.91,184.344Z" transform="translate(-125.416 -179.3)"/><path class="a" d="M133.91,215l.128.384.405,0a.055.055,0,0,1,.032.1l-.326.241.122.386a.055.055,0,0,1-.084.061l-.33-.236-.33.236a.055.055,0,0,1-.084-.061l.122-.386-.326-.241a.055.055,0,0,1,.032-.1l.405,0,.128-.384A.055.055,0,0,1,133.91,215Z" transform="translate(-125.416 -207.945)"/><path class="a" d="M157.7,108.006l.128.384.405,0a.055.055,0,0,1,.032.1l-.326.241.122.386a.055.055,0,0,1-.084.061l-.33-.236-.33.236a.055.055,0,0,1-.084-.061l.122-.386-.326-.241a.055.055,0,0,1,.032-.1l.405,0,.128-.384A.055.055,0,0,1,157.7,108.006Z" transform="translate(-147.65 -107.969)"/><path class="a" d="M157.7,138.661l.128.384.405,0a.055.055,0,0,1,.032.1l-.326.241.122.386a.055.055,0,0,1-.084.061l-.33-.236-.33.236a.055.055,0,0,1-.084-.061l.122-.386-.326-.241a.055.055,0,0,1,.032-.1l.405,0,.128-.384A.055.055,0,0,1,157.7,138.661Z" transform="translate(-147.65 -136.613)"/><path class="a" d="M157.7,169.315l.128.384.405,0a.055.055,0,0,1,.032.1l-.326.241.122.386a.055.055,0,0,1-.084.061l-.33-.236-.33.236a.055.055,0,0,1-.084-.061l.122-.386-.326-.241a.055.055,0,0,1,.032-.1l.405,0,.128-.384A.055.055,0,0,1,157.7,169.315Z" transform="translate(-147.65 -165.257)"/><path class="a" d="M157.7,199.969l.128.384.405,0a.055.055,0,0,1,.032.1l-.326.241.122.386a.055.055,0,0,1-.084.061l-.33-.236-.33.236a.055.055,0,0,1-.084-.061l.122-.386-.326-.241a.055.055,0,0,1,.032-.1l.405,0,.128-.384A.055.055,0,0,1,157.7,199.969Z" transform="translate(-147.65 -193.9)"/><path class="a" d="M157.7,230.622l.128.384.405,0a.055.055,0,0,1,.032.1l-.326.241.122.386a.055.055,0,0,1-.084.061l-.33-.236-.33.236a.055.055,0,0,1-.084-.061l.122-.386-.326-.241a.055.055,0,0,1,.032-.1l.405,0,.128-.384A.055.055,0,0,1,157.7,230.622Z" transform="translate(-147.65 -222.543)"/><path class="a" d="M181.5,123.036l.128.384.405,0a.055.055,0,0,1,.032.1l-.326.241.122.386a.055.055,0,0,1-.084.061l-.33-.236-.33.236a.055.055,0,0,1-.084-.061l.122-.386-.326-.241a.055.055,0,0,1,.032-.1l.405,0,.128-.384A.055.055,0,0,1,181.5,123.036Z" transform="translate(-169.882 -122.013)"/><path class="a" d="M181.5,153.69l.128.384.405,0a.055.055,0,0,1,.032.1l-.326.241.122.386a.055.055,0,0,1-.084.061l-.33-.236-.33.236a.055.055,0,0,1-.084-.061l.122-.386-.326-.241a.055.055,0,0,1,.032-.1l.405,0,.128-.384A.055.055,0,0,1,181.5,153.69Z" transform="translate(-169.882 -150.657)"/><path class="a" d="M181.5,184.344l.128.384.405,0a.055.055,0,0,1,.032.1l-.326.241.122.386a.055.055,0,0,1-.084.061l-.33-.236-.33.236a.055.055,0,0,1-.084-.061l.122-.386-.326-.241a.055.055,0,0,1,.032-.1l.405,0,.128-.384A.055.055,0,0,1,181.5,184.344Z" transform="translate(-169.882 -179.3)"/><path class="a" d="M181.5,215l.128.384.405,0a.055.055,0,0,1,.032.1l-.326.241.122.386a.055.055,0,0,1-.084.061l-.33-.236-.33.236a.055.055,0,0,1-.084-.061l.122-.386-.326-.241a.055.055,0,0,1,.032-.1l.405,0,.128-.384A.055.055,0,0,1,181.5,215Z" transform="translate(-169.882 -207.945)"/><path class="a" d="M205.291,108.006l.128.384.405,0a.055.055,0,0,1,.032.1l-.326.241.122.386a.055.055,0,0,1-.084.061l-.33-.236-.33.236a.055.055,0,0,1-.084-.061l.122-.386-.326-.241a.055.055,0,0,1,.032-.1l.405,0,.128-.384A.055.055,0,0,1,205.291,108.006Z" transform="translate(-192.116 -107.969)"/><path class="a" d="M205.291,138.661l.128.384.405,0a.055.055,0,0,1,.032.1l-.326.241.122.386a.055.055,0,0,1-.084.061l-.33-.236-.33.236a.055.055,0,0,1-.084-.061l.122-.386-.326-.241a.055.055,0,0,1,.032-.1l.405,0,.128-.384A.055.055,0,0,1,205.291,138.661Z" transform="translate(-192.116 -136.613)"/><path class="a" d="M205.291,169.315l.128.384.405,0a.055.055,0,0,1,.032.1l-.326.241.122.386a.055.055,0,0,1-.084.061l-.33-.236-.33.236a.055.055,0,0,1-.084-.061l.122-.386-.326-.241a.055.055,0,0,1,.032-.1l.405,0,.128-.384A.055.055,0,0,1,205.291,169.315Z" transform="translate(-192.116 -165.257)"/><path class="a" d="M205.291,199.969l.128.384.405,0a.055.055,0,0,1,.032.1l-.326.241.122.386a.055.055,0,0,1-.084.061l-.33-.236-.33.236a.055.055,0,0,1-.084-.061l.122-.386-.326-.241a.055.055,0,0,1,.032-.1l.405,0,.128-.384A.055.055,0,0,1,205.291,199.969Z" transform="translate(-192.116 -193.9)"/><path class="a" d="M205.291,230.622l.128.384.405,0a.055.055,0,0,1,.032.1l-.326.241.122.386a.055.055,0,0,1-.084.061l-.33-.236-.33.236a.055.055,0,0,1-.084-.061l.122-.386-.326-.241a.055.055,0,0,1,.032-.1l.405,0,.128-.384A.055.055,0,0,1,205.291,230.622Z" transform="translate(-192.116 -222.543)"/></g></g></svg>